HIERARCHY
ROOT Bone
{
	OFFSET 0.000000 0.000000 0.000000
	CHANNELS 6 Xposition Yposition Zposition Xrotation Yrotation Zrotation
	JOINT Bone.001
	{
		OFFSET 0.000000 0.000000 0.082869
		CHANNELS 3 Xrotation Yrotation Zrotation
		JOINT Bone.002
		{
			OFFSET 0.012749 0.000000 0.079681
			CHANNELS 3 Xrotation Yrotation Zrotation
			JOINT Bone.003
			{
				OFFSET 0.012749 0.000000 0.079681
				CHANNELS 3 Xrotation Yrotation Zrotation
				JOINT Bone.004
				{
					OFFSET 0.009562 0.000000 0.079681
					CHANNELS 3 Xrotation Yrotation Zrotation
					JOINT Bone.005
					{
						OFFSET 0.009562 0.000000 0.079681
						CHANNELS 3 Xrotation Yrotation Zrotation
						JOINT Bone.006
						{
							OFFSET 0.009562 0.000000 0.079681
							CHANNELS 3 Xrotation Yrotation Zrotation
							JOINT Bone.007
							{
								OFFSET 0.009562 0.000000 0.079681
								CHANNELS 3 Xrotation Yrotation Zrotation
								JOINT Bone.008
								{
									OFFSET 0.003187 0.000000 0.079681
									CHANNELS 3 Xrotation Yrotation Zrotation
									JOINT Bone.009
									{
										OFFSET 0.006375 0.000000 0.079681
										CHANNELS 3 Xrotation Yrotation Zrotation
										End Site
										{
											OFFSET 0.006375 0.000000 0.079681
										}
									}
								}
							}
						}
					}
				}
			}
		}
	}
}
MOTION
Frames: 29
Frame Time: 0.041667
0.000000 0.000000 0.000000 0.000000 0.000000 0.000000 0.000000 9.090277 0.000000 0.000000 0.000000 0.000000 0.000000 -2.247504 0.000000 0.000000 0.000000 0.000000 0.000000 0.000000 0.000000 0.000000 0.000000 0.000000 0.000000 -4.552163 0.000000 0.000000 2.283311 0.000000 0.000000 0.000000 0.000000 
0.000000 0.000000 0.000000 0.000000 0.000000 0.000000 0.000000 9.090277 0.000000 0.000000 0.000000 0.000000 0.000000 -2.247504 0.000000 0.000000 0.000000 0.000000 0.000000 0.000000 0.000000 0.000000 0.000000 0.000000 0.000000 -4.552163 0.000000 0.000000 2.283311 0.000000 0.000000 0.000000 0.000000 
0.000000 0.000000 0.000000 0.000000 2.202598 0.000000 0.000000 4.640175 0.000000 0.000000 2.247504 0.000000 0.000000 -2.247504 0.000000 0.000000 2.247504 0.000000 0.000000 0.000000 0.000000 0.000000 -4.516356 0.000000 0.000000 0.000000 0.000000 0.000000 0.000000 0.000000 0.000000 2.268852 0.000000 
0.000000 0.000000 0.000000 0.000000 1.789911 0.000000 0.000000 7.672412 0.000000 0.000000 0.000000 0.000000 0.000000 -2.337306 0.000000 0.000000 2.337306 0.000000 0.000000 -2.337306 0.000000 0.000000 0.000000 0.000000 0.000000 -2.361375 0.000000 0.000000 0.000000 0.000000 0.000000 2.361375 0.000000 
0.000000 0.000000 0.000000 0.000000 2.290610 0.000000 0.000000 4.552163 0.000000 0.000000 2.247504 0.000000 0.000000 -2.247504 0.000000 0.000000 2.247504 0.000000 0.000000 0.000000 0.000000 0.000000 -2.247504 0.000000 0.000000 -2.268852 0.000000 0.000000 2.268852 0.000000 0.000000 -2.268852 0.000000 
0.000000 0.000000 0.000000 0.000000 2.202598 0.000000 0.000000 4.640175 0.000000 0.000000 2.247504 0.000000 0.000000 -2.247504 0.000000 0.000000 2.247504 0.000000 0.000000 0.000000 0.000000 0.000000 -2.247504 0.000000 0.000000 0.000000 0.000000 0.000000 -2.268852 0.000000 0.000000 0.000000 0.000000 
0.000000 0.000000 0.000000 0.000000 2.202598 0.000000 0.000000 4.640175 0.000000 0.000000 2.247504 0.000000 0.000000 -2.247504 0.000000 0.000000 2.247504 0.000000 0.000000 0.000000 0.000000 0.000000 -2.247504 0.000000 0.000000 0.000000 0.000000 0.000000 -2.268852 0.000000 0.000000 0.000000 0.000000 
0.000000 0.000000 0.000000 0.000000 2.385944 0.000000 0.000000 4.456829 0.000000 0.000000 2.247504 0.000000 0.000000 -2.247504 0.000000 0.000000 2.247504 0.000000 0.000000 -2.247504 0.000000 0.000000 2.247504 0.000000 0.000000 -4.516356 0.000000 0.000000 0.000000 0.000000 0.000000 2.268852 0.000000 
0.000000 0.000000 0.000000 0.000000 2.290610 0.000000 0.000000 4.552163 0.000000 0.000000 2.247504 0.000000 0.000000 0.000000 0.000000 0.000000 -2.247504 0.000000 0.000000 2.247504 0.000000 0.000000 -2.247504 0.000000 0.000000 0.000000 0.000000 0.000000 -2.268852 0.000000 0.000000 0.000000 0.000000 
0.000000 0.000000 0.000000 0.000000 2.045408 0.000000 0.000000 7.044868 0.000000 0.000000 0.000000 0.000000 0.000000 -2.247504 0.000000 0.000000 2.247504 0.000000 0.000000 -2.247504 0.000000 0.000000 0.000000 0.000000 0.000000 0.000000 0.000000 0.000000 -2.268852 0.000000 0.000000 0.000000 0.000000 
0.000000 0.000000 0.000000 0.000000 2.045408 0.000000 0.000000 7.044868 0.000000 0.000000 0.000000 0.000000 0.000000 -2.247504 0.000000 0.000000 2.247504 0.000000 0.000000 -2.247504 0.000000 0.000000 0.000000 0.000000 0.000000 0.000000 0.000000 0.000000 -2.268852 0.000000 0.000000 0.000000 0.000000 
0.000000 0.000000 0.000000 0.000000 0.000000 0.000000 0.000000 6.842773 0.000000 0.000000 2.247504 0.000000 0.000000 0.000000 0.000000 0.000000 -2.247504 0.000000 0.000000 2.247504 0.000000 0.000000 -2.247504 0.000000 0.000000 0.000000 0.000000 0.000000 -4.552163 0.000000 0.000000 4.552163 0.000000 
0.000000 0.000000 0.000000 0.000000 0.000000 0.000000 0.000000 9.090277 0.000000 0.000000 -2.247504 0.000000 0.000000 2.247504 0.000000 0.000000 -2.247504 0.000000 0.000000 0.000000 0.000000 0.000000 0.000000 0.000000 0.000000 -2.268852 0.000000 0.000000 2.268852 0.000000 0.000000 -2.268852 0.000000 
0.000000 0.000000 0.000000 0.000000 0.000000 0.000000 0.000000 9.090277 0.000000 0.000000 -2.247504 0.000000 0.000000 2.247504 0.000000 0.000000 -2.247504 0.000000 0.000000 0.000000 0.000000 0.000000 0.000000 0.000000 0.000000 -2.268852 0.000000 0.000000 2.268852 0.000000 0.000000 -2.268852 0.000000 
0.000000 0.000000 0.000000 0.000000 0.000000 0.000000 0.000000 6.842773 0.000000 0.000000 2.247504 0.000000 0.000000 -2.247504 0.000000 0.000000 0.000000 0.000000 0.000000 0.000000 0.000000 0.000000 0.000000 0.000000 0.000000 -2.268852 0.000000 0.000000 0.000000 0.000000 0.000000 -2.283311 0.000000 
0.000000 0.000000 0.000000 0.000000 0.000000 0.000000 0.000000 6.842773 0.000000 0.000000 2.247504 0.000000 0.000000 -2.247504 0.000000 0.000000 0.000000 0.000000 0.000000 0.000000 0.000000 0.000000 0.000000 0.000000 0.000000 -2.268852 0.000000 0.000000 0.000000 0.000000 0.000000 -2.283311 0.000000 
0.000000 0.000000 0.000000 0.000000 0.000000 0.000000 0.000000 9.090277 0.000000 0.000000 -2.247504 0.000000 0.000000 2.247504 0.000000 0.000000 -4.516356 0.000000 0.000000 4.516356 0.000000 0.000000 -4.516356 0.000000 0.000000 0.000000 0.000000 0.000000 0.000000 0.000000 0.000000 0.000000 0.000000 
0.000000 0.000000 0.000000 0.000000 0.000000 0.000000 0.000000 9.090277 0.000000 0.000000 -2.247504 0.000000 0.000000 2.247504 0.000000 0.000000 -4.516356 0.000000 0.000000 4.516356 0.000000 0.000000 -4.516356 0.000000 0.000000 0.000000 0.000000 0.000000 0.000000 0.000000 0.000000 0.000000 0.000000 
0.000000 0.000000 0.000000 0.000000 -2.202598 0.000000 0.000000 10.948760 0.000000 0.000000 -2.164218 0.000000 0.000000 0.000000 0.000000 0.000000 2.164218 0.000000 0.000000 -2.164218 0.000000 0.000000 0.000000 0.000000 0.000000 0.000000 0.000000 0.000000 0.000000 0.000000 0.000000 -2.183239 0.000000 
0.000000 0.000000 0.000000 0.000000 -2.290610 0.000000 0.000000 8.872555 0.000000 0.000000 2.164218 0.000000 0.000000 -2.164218 0.000000 0.000000 0.000000 0.000000 0.000000 2.164218 0.000000 0.000000 -2.164218 0.000000 0.000000 0.000000 0.000000 0.000000 2.164218 0.000000 0.000000 -4.347457 0.000000 
0.000000 0.000000 0.000000 0.000000 0.000000 0.000000 0.000000 4.398705 0.000000 0.000000 2.183239 0.000000 0.000000 0.000000 0.000000 0.000000 2.164218 0.000000 0.000000 -2.164218 0.000000 0.000000 0.000000 0.000000 0.000000 2.164218 0.000000 0.000000 -2.164218 0.000000 0.000000 0.000000 0.000000 
0.000000 0.000000 0.000000 0.000000 0.000000 0.000000 0.000000 6.581945 0.000000 0.000000 0.000000 0.000000 0.000000 0.000000 0.000000 0.000000 0.000000 0.000000 0.000000 0.000000 0.000000 0.000000 -2.183239 0.000000 0.000000 2.183239 0.000000 0.000000 -2.183239 0.000000 0.000000 2.183239 0.000000 
0.000000 0.000000 0.000000 0.000000 3.814075 0.000000 0.000000 3.028699 0.000000 0.000000 0.000000 0.000000 0.000000 0.000000 0.000000 0.000000 0.000000 0.000000 0.000000 -4.552163 0.000000 0.000000 2.283311 0.000000 0.000000 0.000000 0.000000 0.000000 0.000000 0.000000 0.000000 -2.283311 0.000000 
0.000000 0.000000 0.000000 0.000000 5.710593 0.000000 0.000000 3.751729 0.000000 0.000000 -2.337306 0.000000 0.000000 2.337306 0.000000 0.000000 -4.698681 0.000000 0.000000 0.000000 0.000000 0.000000 -2.377698 0.000000 0.000000 2.377698 0.000000 0.000000 -2.377698 0.000000 0.000000 0.000000 0.000000 
0.000000 0.000000 0.000000 0.000000 6.340192 0.000000 0.000000 1.789911 0.000000 0.000000 5.262395 0.000000 0.000000 -2.608200 0.000000 0.000000 0.000000 0.000000 0.000000 -5.343966 0.000000 0.000000 -2.714021 0.000000 0.000000 2.714021 0.000000 0.000000 -2.714021 0.000000 0.000000 -2.726311 0.000000 
0.000000 0.000000 0.000000 0.000000 2.602562 0.000000 0.000000 9.926246 0.000000 0.000000 0.000000 0.000000 0.000000 0.000000 0.000000 0.000000 2.995303 0.000000 0.000000 -6.061789 0.000000 0.000000 -3.122130 0.000000 0.000000 0.000000 0.000000 0.000000 -3.160362 0.000000 0.000000 0.000000 0.000000 
0.000000 0.000000 0.000000 0.000000 11.309932 0.000000 0.000000 1.218875 0.000000 0.000000 0.000000 0.000000 0.000000 0.000000 0.000000 0.000000 2.995303 0.000000 0.000000 -9.183919 0.000000 0.000000 -3.160362 0.000000 0.000000 3.160362 0.000000 0.000000 -3.160362 0.000000 0.000000 0.000000 0.000000 
0.000000 0.000000 0.000000 0.000000 25.641006 0.000000 0.000000 -9.251465 0.000000 0.000000 -3.149020 0.000000 0.000000 3.149020 0.000000 0.000000 -3.149020 0.000000 0.000000 -9.874059 0.000000 0.000000 3.343376 0.000000 0.000000 -3.343376 0.000000 0.000000 0.000000 0.000000 0.000000 -3.366461 0.000000 
0.000000 0.000000 0.000000 0.000000 45.000000 0.000000 0.000000 -24.443955 0.000000 0.000000 -3.202021 0.000000 0.000000 3.202021 0.000000 0.000000 -3.202021 0.000000 0.000000 0.000000 0.000000 0.000000 -6.734369 0.000000 0.000000 -3.494639 0.000000 0.000000 0.000000 0.000000 0.000000 -3.548682 0.000000 
